<?xml version="1.0" standalone="no"?>
<!DOCTYPE svg PUBLIC "-//W3C//DTD SVG 1.1//EN" "http://www.w3.org/Graphics/SVG/1.1/DTD/svg11.dtd" >
<svg xmlns="http://www.w3.org/2000/svg" xmlns:xlink="http://www.w3.org/1999/xlink" version="1.1">
<metadata></metadata>
<defs>
<font id="eina02-regularuploaded_file" horiz-adv-x="1191" >
<font-face units-per-em="2048" ascent="1573" descent="-475" />
<missing-glyph horiz-adv-x="532" />
<glyph unicode="&#xfb01;" horiz-adv-x="1179" d="M25 920v122h202v172q0 160 84 241t226 81l69 -4v-133q-20 4 -57 4q-88 0 -132 -43t-44 -139v-179h235v-122h-235v-920h-146v920h-202zM793 1401q0 45 29.5 74.5t74.5 29.5t74.5 -29.5t29.5 -74.5t-29.5 -73t-74.5 -28q-47 0 -75.5 28t-28.5 73zM823 0v1042h146v-1042 h-146z" />
<glyph unicode="&#xfb02;" horiz-adv-x="1148" d="M25 920v122h202v172q0 160 84 241t226 81l69 -4v-133q-20 4 -57 4q-88 0 -132 -43t-44 -139v-179h235v-122h-235v-920h-146v920h-202zM823 0v1536h146v-1536h-146z" />
<glyph horiz-adv-x="0" />
<glyph unicode="&#xd;" horiz-adv-x="681" />
<glyph unicode=" "  horiz-adv-x="532" />
<glyph unicode="&#x09;" horiz-adv-x="532" />
<glyph unicode="&#xa0;" horiz-adv-x="532" />
<glyph unicode="!" horiz-adv-x="505" d="M143 90q0 47 32 78t79 31t77.5 -31t30.5 -78q0 -45 -30.5 -75.5t-77.5 -30.5t-79 30.5t-32 75.5zM168 1454h170l-25 -1118h-120z" />
<glyph unicode="&#x22;" horiz-adv-x="825" d="M166 848v606h143v-606h-143zM516 848v606h141v-606h-141z" />
<glyph unicode="#" horiz-adv-x="1261" d="M88 438l25 121h223l70 332h-226l27 121h225l92 442h127l-94 -442h270l95 442h125l-95 -442h222l-25 -121h-223l-68 -332h221l-24 -121h-224l-92 -438h-125l91 438h-271l-90 -438h-127l92 438h-221zM461 559h270l70 332h-271z" />
<glyph unicode="$" d="M84 377l147 24q39 -279 338 -292v569l-47 14q-197 59 -290 158.5t-93 245.5q0 156 113 265t317 122v225h103v-225q195 -12 303 -123t129 -281l-146 -28q-14 119 -87.5 197.5t-198.5 94.5v-540l28 -6q219 -47 315.5 -151.5t96.5 -266.5q0 -164 -114.5 -275.5 t-325.5 -130.5v-227h-103v225q-225 8 -341.5 121t-143.5 285zM289 1100q0 -104 60.5 -162.5t219.5 -106.5v515q-139 -8 -209.5 -74t-70.5 -172zM672 111q135 14 212 82.5t77 177.5q0 104 -63.5 167.5t-225.5 110.5v-538z" />
<glyph unicode="%" horiz-adv-x="1925" d="M156 1003.5q0 219.5 80.5 341t236.5 121.5q154 0 234.5 -121.5t80.5 -341t-80.5 -340t-234.5 -120.5q-156 0 -236.5 120.5t-80.5 340zM283 1004q0 -344 190 -345q188 0 189 345q0 346 -189 346q-190 0 -190 -346zM498 0l802 1454h127l-802 -1454h-127zM1137 448.5 q0 219.5 80.5 341t236.5 121.5q154 0 234.5 -121.5t80.5 -341t-80.5 -340t-234.5 -120.5q-156 0 -236.5 120.5t-80.5 340zM1264 449q0 -344 190 -345q188 0 188 345q0 346 -188 346q-190 0 -190 -346z" />
<glyph unicode="&#x26;" horiz-adv-x="1378" d="M94 369q0 276 320 411q-172 178 -172 342q0 152 105.5 257.5t279.5 105.5t280.5 -99.5t106.5 -242.5q0 -137 -87 -234.5t-284 -169.5l385 -391q92 141 92 334l-10 133h143q8 -59 9 -129q0 -252 -136 -440l242 -246h-192l-142 143q-188 -174 -461 -174q-225 0 -352 112 t-127 288zM242 373q0 -125 88.5 -198t244.5 -73q213 0 363 140l-430 440q-135 -57 -200.5 -128t-65.5 -181zM387 1126q0 -127 145 -274l15 -16l61 26q145 63 202.5 122.5t57.5 158t-69.5 157t-171.5 58.5q-106 0 -173 -63t-67 -169z" />
<glyph unicode="'" horiz-adv-x="475" d="M166 848v606h143v-606h-143z" />
<glyph unicode="(" horiz-adv-x="645" d="M184 598q0 555 240 938h147q-237 -418 -237 -938q0 -522 237 -938h-147q-240 383 -240 938z" />
<glyph unicode=")" horiz-adv-x="645" d="M72 -340q239 420 239 938q0 516 -239 938h147q242 -387 242 -938t-242 -938h-147z" />
<glyph unicode="*" horiz-adv-x="796" d="M55 1196l37 109l250 -84l-2 264h115l-2 -266l252 84l34 -109l-252 -80l156 -213l-92 -67l-154 215l-153 -215l-92 69l155 213z" />
<glyph unicode="+" d="M68 451v139h458v452h142v-452h456v-139h-456v-451h-142v451h-458z" />
<glyph unicode="," horiz-adv-x="442" d="M55 -223l107 416h172l-150 -416h-129z" />
<glyph unicode="-" horiz-adv-x="811" d="M90 453v137h631v-137h-631z" />
<glyph unicode="." horiz-adv-x="442" d="M109 94q0 47 31.5 79t80.5 32q47 0 80 -32t33 -79q0 -49 -32 -79.5t-81 -30.5t-80.5 30.5t-31.5 79.5z" />
<glyph unicode="/" horiz-adv-x="835" d="M45 0l592 1454h154l-592 -1454h-154z" />
<glyph unicode="0" d="M88 727q0 352 133 555t375 203t375 -203t133 -555t-133 -555t-375 -203t-375 203t-133 555zM242 727q0 -303 94 -460.5t260 -157.5t260 157.5t94 460.5t-94 461t-260 158t-260 -158t-94 -461z" />
<glyph unicode="1" d="M215 0v131h344v1178h-328v102l361 43h117v-1323h342v-131h-836z" />
<glyph unicode="2" d="M113 0v127l581 535q195 178 195 368q0 145 -82 231.5t-229 86.5q-156 0 -233 -92.5t-77 -245.5v-19l-151 27q2 211 125 339t336 128q223 0 343.5 -124t120.5 -325q0 -139 -62 -253.5t-200 -235.5l-456 -406h753v-141h-964z" />
<glyph unicode="3" d="M113 375l147 28q16 -131 103.5 -215t234.5 -84q152 0 241 78t89 226q0 133 -92.5 201.5t-253.5 68.5h-133v133h122q164 0 251 73.5t87 186.5q0 129 -80.5 203t-236.5 74q-137 0 -214 -76t-89 -189l-146 29q25 162 146 267.5t305 105.5q217 0 341 -112.5t124 -295.5 q0 -111 -60.5 -198.5t-179.5 -128.5q133 -39 197.5 -129.5t64.5 -212.5q0 -195 -129 -317t-354 -122q-207 0 -332.5 110t-152.5 296z" />
<glyph unicode="4" d="M53 356v131l715 967h160v-962h188v-136h-188v-356h-146v356h-729zM223 492h559v753h-2z" />
<glyph unicode="5" d="M117 350l147 37q18 -119 102.5 -200t231.5 -81t240.5 101.5t93.5 265.5q0 154 -90 248t-246 94q-119 0 -202 -62.5t-109 -131.5h-135l116 833h750v-141h-633l-66 -484q119 119 304 119q213 0 337.5 -137t124.5 -338q0 -213 -136 -358.5t-349 -145.5q-197 0 -323.5 103.5 t-157.5 277.5z" />
<glyph unicode="6" d="M113 479q0 483 549 975h198q-381 -309 -522 -623q117 113 293 113q213 0 344 -141t131 -344t-140.5 -346.5t-357.5 -143.5q-225 0 -360 145.5t-135 364.5zM266 458.5q0 -159.5 95.5 -257t246.5 -97.5q150 0 246 98.5t96 256t-96 257t-246 99.5q-152 0 -247 -98.5 t-95 -258z" />
<glyph unicode="7" d="M66 1120v334h1048v-133q-236 -299 -367 -604t-194 -717h-160q127 774 537 1313h-719v-193h-145z" />
<glyph unicode="8" d="M106 389q0 117 63.5 216.5t178.5 146.5q-98 47 -149.5 139t-51.5 199q0 168 119 281.5t330 113.5t331 -114t120 -284q0 -104 -53.5 -196t-151.5 -139q115 -47 178 -146.5t63 -216.5q0 -186 -126 -303t-361.5 -117t-362.5 118t-127 302zM260 395q0 -131 86 -212t250 -81 t250 81t86 212t-91 208t-245 77t-245 -77t-91 -208zM291 1087q0 -123 80 -198.5t225 -75.5q143 0 224 76t81 196q0 117 -79 192t-226 75t-226 -74t-79 -191z" />
<glyph unicode="9" d="M88 995.5q0 202.5 140.5 346t357.5 143.5q225 0 360 -146.5t135 -363.5q0 -485 -551 -975h-196q371 299 520 621q-123 -113 -293 -113q-211 0 -342 142.5t-131 345zM244 995q0 -160 95 -259t247 -99q150 0 246 99.5t96 258.5q0 158 -96.5 256.5t-245.5 98.5 q-152 0 -247 -98.5t-95 -256.5z" />
<glyph unicode=":" horiz-adv-x="442" d="M109 94q0 47 31.5 79t80.5 32q47 0 80 -32t33 -79q0 -49 -32 -79.5t-81 -30.5t-80.5 30.5t-31.5 79.5zM109 946q0 49 31.5 81t80.5 32q47 0 80 -32t33 -81q0 -47 -33 -78.5t-80 -31.5q-49 0 -80.5 31.5t-31.5 78.5z" />
<glyph unicode=";" horiz-adv-x="444" d="M55 -223l107 416h172l-150 -416h-129zM109 946q0 49 31.5 81t80.5 32q47 0 80 -32t33 -81q0 -47 -33 -78.5t-80 -31.5q-49 0 -80.5 31.5t-31.5 78.5z" />
<glyph unicode="&#x3c;" d="M111 453v125l970 397v-150l-788 -309l788 -309v-152z" />
<glyph unicode="=" d="M68 242v141h1056v-141h-1056zM68 657v142h1056v-142h-1056z" />
<glyph unicode="&#x3e;" d="M111 55v152l788 309l-788 309v150l970 -397v-125z" />
<glyph unicode="?" horiz-adv-x="1069" d="M78 1069q4 178 126 297t320 119q211 0 328 -114t117 -292q0 -100 -41 -184t-98.5 -141.5t-115 -107.5t-98.5 -107.5t-41 -118.5l9 -84h-144q-10 49 -10 86q0 84 40 154.5t96.5 122t113.5 103.5t97 120.5t40 148.5q0 131 -79 205t-214 74q-133 0 -214 -84.5t-81 -221.5z M410 90q0 47 30.5 78t79.5 31q47 0 78 -31t31 -78q0 -45 -31 -75.5t-78 -30.5q-49 0 -79.5 29.5t-30.5 76.5z" />
<glyph unicode="@" horiz-adv-x="1689" d="M104 506q0 330 214 554t561 224q322 0 514 -178t192 -463q0 -227 -118.5 -367.5t-274.5 -140.5q-141 0 -174 127q-82 -127 -242 -127q-135 0 -215 88t-80 240q0 180 96.5 308t260.5 128q174 0 235 -135l23 106h118l-90 -452q-6 -29 -6 -56q0 -53 25.5 -83.5t70.5 -30.5 q117 0 185.5 111.5t68.5 273.5q0 254 -161.5 398.5t-429.5 144.5q-297 0 -472.5 -190.5t-175.5 -477.5q0 -303 169 -476t460 -173q156 0 281.5 57t197.5 141h138q-98 -143 -262 -225t-357 -82q-350 0 -551 209t-201 547zM610 465q0 -221 191 -221q102 0 164.5 98t62.5 227 q0 100 -43 159.5t-131 59.5q-113 0 -178.5 -89t-65.5 -234z" />
<glyph unicode="A" horiz-adv-x="1376" d="M8 0l598 1454h162l600 -1454h-166l-137 340h-758l-139 -340h-160zM360 479h650l-322 793h-4z" />
<glyph unicode="B" horiz-adv-x="1380" d="M207 0v1454h538q240 0 359 -104.5t119 -282.5q0 -117 -60.5 -205t-167.5 -125q121 -35 190.5 -125t69.5 -215q0 -193 -128.5 -295t-366.5 -102h-553zM356 139h408q342 0 342 264q0 131 -90 198t-250 67h-410v-529zM356 807h396q322 0 322 254t-322 254h-396v-508z" />
<glyph unicode="C" horiz-adv-x="1599" d="M106 727q0 330 198 544t521 214q242 0 419 -123t247 -336l-145 -49q-51 170 -190.5 268t-330.5 98q-254 0 -408.5 -169.5t-154.5 -446t154.5 -446.5t408.5 -170q190 0 329.5 98t191.5 268l145 -49q-70 -213 -247 -336t-419 -123q-324 0 -521.5 214t-197.5 544z" />
<glyph unicode="D" horiz-adv-x="1562" d="M207 0v1454h440q381 0 595 -196.5t214 -530.5t-214 -530.5t-595 -196.5h-440zM356 143h283q324 0 492.5 154t168.5 430.5t-168.5 430t-492.5 153.5h-283v-1168z" />
<glyph unicode="E" horiz-adv-x="1302" d="M207 0v1454h977v-141h-828v-504h785v-141h-785v-527h828v-141h-977z" />
<glyph unicode="F" horiz-adv-x="1193" d="M207 0v1454h926v-141h-777v-504h734v-141h-734v-668h-149z" />
<glyph unicode="G" horiz-adv-x="1683" d="M106 727q0 330 197.5 544t521.5 214q242 0 419 -123t247 -336l-145 -49q-51 170 -190.5 268t-330.5 98q-254 0 -408.5 -169.5t-154.5 -446t155.5 -449t407.5 -172.5q229 0 382 144.5t161 386.5h-489v139h630v-776h-137v276q-78 -141 -223 -223t-330 -82 q-322 0 -517.5 213t-195.5 543z" />
<glyph unicode="H" horiz-adv-x="1564" d="M207 0v1454h149v-645h850v645h150v-1454h-150v668h-850v-668h-149z" />
<glyph unicode="I" horiz-adv-x="565" d="M207 0v1454h149v-1454h-149z" />
<glyph unicode="J" horiz-adv-x="1214" d="M96 436q0 10 1 30t1 26l154 26q-4 -25 -4 -82q0 -145 82 -236t231 -91q152 0 235 90t83 254v1001h149v-997q0 -221 -125 -352.5t-342 -131.5q-215 0 -340 125t-125 338z" />
<glyph unicode="K" horiz-adv-x="1439" d="M207 0v1454h149v-838l836 838h201l-615 -606l656 -848h-191l-569 741l-318 -311v-430h-149z" />
<glyph unicode="L" horiz-adv-x="1107" d="M207 0v1454h149v-1313h729v-141h-878z" />
<glyph unicode="M" horiz-adv-x="1738" d="M207 0v1454h135l526 -678l529 678h135v-1454h-150v1200l-510 -647h-8l-508 647v-1200h-149z" />
<glyph unicode="N" horiz-adv-x="1568" d="M207 0v1454h158l847 -1216v1216h150v-1454h-158l-848 1214v-1214h-149z" />
<glyph unicode="O" horiz-adv-x="1695" d="M106 727q0 324 206 541t536 217t535.5 -217t205.5 -541t-205.5 -541t-535.5 -217t-536 217t-206 541zM262 727q0 -272 166 -444t420 -172t420 172t166 444t-166 444t-420 172t-420 -172t-166 -444z" />
<glyph unicode="P" horiz-adv-x="1318" d="M207 0v1454h565q240 0 354.5 -115.5t114.5 -304t-115.5 -305.5t-353.5 -117h-416v-612h-149zM356 756h422q154 0 230.5 72.5t76.5 205.5q0 131 -76.5 204t-230.5 73h-422v-555z" />
<glyph unicode="Q" horiz-adv-x="1695" d="M106 727q0 324 206 541t536 217t535.5 -217t205.5 -541q0 -199 -84 -364.5t-233 -268.5l67 -82q123 -145 263 -145l28 2v-141q-20 -2 -31 -2q-209 0 -362 180l-98 117q-143 -53 -291 -54q-330 0 -536 217t-206 541zM262 727q0 -272 166 -444t420 -172t420 172t166 444 t-166 444t-420 172t-420 -172t-166 -444z" />
<glyph unicode="R" horiz-adv-x="1376" d="M207 0v1454h598q236 0 351.5 -113.5t115.5 -296.5q0 -154 -83 -260t-251 -137l367 -647h-181l-342 633h-426v-633h-149zM356 776h455q152 0 228.5 70.5t76.5 197.5q0 123 -76.5 195t-228.5 72h-455v-535z" />
<glyph unicode="S" horiz-adv-x="1296" d="M76 401l145 33q14 -160 121 -244t279 -84q182 0 285.5 71t103.5 202q0 92 -47.5 151.5t-123 86t-166.5 45t-182.5 41t-167 59.5t-122.5 115.5t-47 197.5q0 168 133 289t364 121q221 0 351.5 -119t148.5 -309l-143 -31q-8 147 -102.5 235.5t-252.5 88.5q-164 0 -257 -73 t-93 -196q0 -86 47 -140t123 -80.5t167 -44t183 -43t168 -64.5t123 -120t47 -200q0 -188 -150.5 -303t-394.5 -115q-252 0 -386 120t-154 310z" />
<glyph unicode="T" horiz-adv-x="1116" d="M18 1311v143h1080v-143h-465v-1311h-150v1311h-465z" />
<glyph unicode="U" horiz-adv-x="1507" d="M176 600v854h150v-868q0 -221 111.5 -350.5t316 -129.5t316.5 129.5t112 350.5v868h149v-854q0 -307 -157.5 -469t-419.5 -162q-264 0 -421 162t-157 469z" />
<glyph unicode="V" horiz-adv-x="1370" d="M20 1454h168l498 -1264h4l496 1264h164l-586 -1454h-160z" />
<glyph unicode="W" horiz-adv-x="2115" d="M35 1454h168l379 -1255h4l389 1255h170l389 -1257h4l381 1257h162l-467 -1456h-166l-387 1257h-4l-391 -1255h-164z" />
<glyph unicode="X" horiz-adv-x="1382" d="M12 0l588 737l-571 717h192l469 -600l471 600h187l-568 -717l590 -737h-194l-486 621l-487 -621h-191z" />
<glyph unicode="Y" horiz-adv-x="1259" d="M0 1454h168l461 -780h4l452 780h175l-555 -938v-516h-150v516z" />
<glyph unicode="Z" horiz-adv-x="1314" d="M90 0v129l934 1184h-926v141h1119v-129l-932 -1184h940v-141h-1135z" />
<glyph unicode="[" horiz-adv-x="616" d="M154 -340v1876h417v-135h-276v-1606h276v-135h-417z" />
<glyph unicode="\" horiz-adv-x="835" d="M45 1454h154l592 -1454h-154z" />
<glyph unicode="]" horiz-adv-x="616" d="M45 -205h277v1606h-277v135h418v-1876h-418v135z" />
<glyph unicode="^" d="M137 494l395 960h125l398 -960h-150l-309 774l-309 -774h-150z" />
<glyph unicode="_" horiz-adv-x="1024" d="M0 -197h1024v-137h-1024v137z" />
<glyph unicode="`" horiz-adv-x="714" d="M211 1554h160l135 -348h-135z" />
<glyph unicode="a" horiz-adv-x="1187" d="M106 287q0 264 394 315l364 47v29q0 264 -295 264q-254 0 -295 -207l-137 29q29 139 136.5 221t301.5 82q217 0 326 -105.5t109 -285.5v-457q0 -100 88 -100l37 4v-121q-20 -6 -66 -6q-74 0 -129 45t-68 121q-59 -88 -166.5 -137.5t-234.5 -49.5q-180 0 -272.5 83 t-92.5 229zM250 287q0 -102 69.5 -146.5t172.5 -44.5q174 0 273 97.5t99 220.5v121l-346 -48q-143 -18 -205.5 -68t-62.5 -132z" />
<glyph unicode="b" horiz-adv-x="1306" d="M178 0v1536h146v-682q119 213 389 213q231 0 362 -158.5t131 -388.5q0 -227 -131 -386t-362 -159q-274 0 -396 218v-193h-139zM319 520q0 -176 98.5 -295t268.5 -119t271.5 119t101.5 295q0 178 -101.5 297t-271.5 119t-268.5 -118t-98.5 -298z" />
<glyph unicode="c" horiz-adv-x="1173" d="M100 520q0 223 142.5 385t371.5 162q174 0 295 -88t172 -227l-135 -54q-37 111 -123 174.5t-209 63.5q-164 0 -265 -117t-101 -299q0 -180 101 -297t265 -117q123 0 209 63.5t123 174.5l135 -53q-51 -139 -172 -227.5t-295 -88.5q-229 0 -371.5 161t-142.5 384z" />
<glyph unicode="d" horiz-adv-x="1306" d="M100 520q0 229 131 388t361 159q270 0 389 -213v682h145v-1536h-139v193q-117 -217 -395 -218q-229 0 -360.5 159t-131.5 386zM248 520q0 -176 101.5 -295t271.5 -119t268 119t98 295q0 180 -98 298t-268 118t-271.5 -119t-101.5 -297z" />
<glyph unicode="e" horiz-adv-x="1214" d="M100 522q0 225 142.5 385t370 160t364.5 -152.5t137 -379.5l-2 -56h-866q10 -164 110.5 -268.5t259.5 -104.5q117 0 203 59t127 159l127 -56q-57 -133 -177 -213t-282 -80q-238 0 -376 159t-138 388zM250 598h719q-14 154 -109.5 246t-247.5 92q-147 0 -245.5 -95.5 t-116.5 -242.5z" />
<glyph unicode="f" horiz-adv-x="636" d="M23 920v122h202v172q0 160 84 241t226 81l69 -4v-133q-20 4 -57 4q-88 0 -132 -43t-44 -139v-179h235v-122h-235v-920h-146v920h-202z" />
<glyph unicode="g" horiz-adv-x="1144" d="M104 -178q0 55 25 103t47.5 68.5t44.5 35.5q-90 59 -90 180q0 137 139 209q-111 104 -111 269q0 167 113 273q113 107 303 107q143 0 248 -66q20 82 90 130.5t162 48.5h26.5h20.5l6 -2v-134q-23 2 -57 3q-55 0 -91 -33t-36 -86q0 -45 12 -78q35 -76 35 -162 q0 -166 -113 -272.5t-303 -106.5q-115 0 -206 41q-6 -2 -13.5 -5t-25 -14.5t-29.5 -24.5t-22.5 -36.5t-10.5 -50.5q0 -45 28 -73.5t81 -28.5h379q172 0 253 -72t81 -195q0 -135 -123 -225t-379 -90q-254 0 -369 71.5t-115 215.5zM246 -164q0 -86 82 -125t260 -39 q360 0 360 178q0 132 -178 132h-424q-39 -14 -69.5 -54.5t-30.5 -91.5zM301 688q0 -117 74 -184.5t200.5 -67.5t200.5 67.5t74 184.5t-74 184.5t-200.5 67.5t-200.5 -67.5t-74 -184.5z" />
<glyph unicode="h" horiz-adv-x="1224" d="M178 0v1536h146v-639q37 63 122.5 116.5t215.5 53.5q188 0 291.5 -110.5t103.5 -290.5v-666h-146v637q0 145 -68.5 224t-205.5 79t-225 -85t-88 -239v-616h-146z" />
<glyph unicode="i" horiz-adv-x="503" d="M147 1401q0 45 29 74.5t76 29.5q45 0 74.5 -29.5t29.5 -74.5t-29.5 -73t-74.5 -28q-47 0 -76 28t-29 73zM178 0v1042h146v-1042h-146z" />
<glyph unicode="j" horiz-adv-x="503" d="M-43 -313q8 -2 45 -2q88 0 132 43t44 139v1175h146v-1169q0 -160 -84 -241t-226 -81l-57 3v133zM147 1401q0 45 29 74.5t76 29.5q45 0 74.5 -29.5t29.5 -74.5t-29.5 -73t-74.5 -28q-47 0 -76 28t-29 73z" />
<glyph unicode="k" horiz-adv-x="1132" d="M178 0v1536h146v-1073l575 579h195l-432 -430l464 -612h-180l-387 514l-235 -229v-285h-146z" />
<glyph unicode="l" horiz-adv-x="503" d="M178 0v1536h146v-1536h-146z" />
<glyph unicode="m" horiz-adv-x="1904" d="M178 0v1042h139v-159q100 184 330 184q248 0 340 -201q49 84 143.5 142.5t223.5 58.5q182 0 281.5 -113.5t99.5 -287.5v-666h-146v637q0 139 -64.5 221t-195.5 82q-129 0 -214 -86t-85 -246v-608h-145v637q0 141 -64.5 222t-197.5 81q-131 0 -215 -86t-84 -233v-621h-146 z" />
<glyph unicode="n" horiz-adv-x="1224" d="M178 0v1042h139v-159q37 70 123 127t222 57q188 0 291.5 -110.5t103.5 -290.5v-666h-146v637q0 145 -68.5 224t-205.5 79t-225 -84t-88 -235v-621h-146z" />
<glyph unicode="o" horiz-adv-x="1263" d="M100 520q0 225 146.5 386t384.5 161q240 0 386 -161t146 -386q0 -223 -146 -384t-386 -161q-238 0 -384.5 161t-146.5 384zM248 520q0 -178 106.5 -296t276.5 -118q172 0 278.5 118t106.5 296q0 180 -106.5 298t-278.5 118t-277.5 -118t-105.5 -298z" />
<glyph unicode="p" horiz-adv-x="1306" d="M178 -426v1468h139v-192q123 217 396 217q231 0 362 -158.5t131 -388.5q0 -227 -131 -386t-362 -159q-272 0 -389 213v-614h-146zM319 520q0 -176 98.5 -295t268.5 -119t271.5 119t101.5 295q0 178 -101.5 297t-271.5 119t-268.5 -118t-98.5 -298z" />
<glyph unicode="q" horiz-adv-x="1306" d="M100 520q0 229 131 388t361 159q276 0 395 -217v192h139v-1468h-145v614q-117 -213 -389 -213q-229 0 -360.5 159t-131.5 386zM248 520q0 -178 101.5 -297t271.5 -119t268 119t98 297q0 180 -98 298t-268 118t-271.5 -119t-101.5 -297z" />
<glyph unicode="r" horiz-adv-x="718" d="M178 0v1042h139v-161q37 68 121 120t213 52l35 -2v-138q-25 2 -51 2q-139 0 -225 -82.5t-86 -240.5v-592h-146z" />
<glyph unicode="s" horiz-adv-x="1032" d="M84 295l145 27q10 -102 81 -161t200 -59t201.5 48.5t72.5 128.5q0 59 -35.5 97t-92 54t-124 27.5t-136 28t-125 44t-92.5 86t-36 144.5q0 127 104.5 217t282.5 90q176 0 271.5 -82t120.5 -201l-140 -47q-10 90 -73.5 146.5t-182.5 56.5q-117 0 -179 -49t-62 -125 q0 -68 47 -106.5t118.5 -50t154.5 -30t154.5 -41t119 -88t47.5 -167.5q0 -127 -107.5 -217.5t-308.5 -90.5t-304.5 89.5t-121.5 230.5z" />
<glyph unicode="t" horiz-adv-x="661" d="M23 920v122h198v297h146v-297h239v-122h-239v-629q0 -164 143 -164l92 10v-131q-37 -10 -110 -10q-270 0 -271 285v639h-198z" />
<glyph unicode="u" horiz-adv-x="1214" d="M168 375v667h145v-636q0 -303 269 -304q133 0 220 83t87 241v616h145v-1042h-139v152q-35 -66 -120 -121.5t-218 -55.5q-188 0 -288.5 110t-100.5 290z" />
<glyph unicode="v" horiz-adv-x="1089" d="M33 1042h157l355 -874l360 874h152l-441 -1042h-147z" />
<glyph unicode="w" horiz-adv-x="1693" d="M49 1042h156l280 -870l287 870h152l282 -870l285 870h154l-365 -1042h-152l-280 858h-2l-285 -858h-151z" />
<glyph unicode="x" horiz-adv-x="1105" d="M41 0l424 526l-414 516h180l322 -403l319 403h179l-414 -514l428 -528h-182l-332 418l-332 -418h-178z" />
<glyph unicode="y" horiz-adv-x="1089" d="M33 1042h157l355 -874l358 874h154l-504 -1196q-125 -295 -379 -295l-41 3v133q17 -2 35 -2q86 0 146.5 45t109.5 159l45 111z" />
<glyph unicode="z" horiz-adv-x="1077" d="M102 0v117l676 796h-667v129h856v-116l-676 -797h684v-129h-873z" />
<glyph unicode="{" horiz-adv-x="643" d="M82 532v132h47q104 0 104 110v481q0 133 66 207t199 74l100 -8v-135q-41 8 -92 8q-72 0 -101.5 -35t-29.5 -104v-478q0 -139 -82 -186q82 -51 82 -188v-476q0 -70 29.5 -104.5t101.5 -34.5l92 8v-135q-37 -8 -100 -8q-133 0 -199 73.5t-66 207.5v481q0 111 -104 110h-47z " />
<glyph unicode="|" horiz-adv-x="561" d="M209 0v1536h143v-1536h-143z" />
<glyph unicode="}" horiz-adv-x="643" d="M45 -197q41 -8 90 -8q72 0 102.5 35t30.5 104v476q0 139 82 188q-82 47 -82 186v478q0 70 -30.5 104.5t-102.5 34.5l-90 -8v135q37 8 100 8q131 0 197 -73.5t66 -207.5v-481q0 -111 104 -110h49v-132h-49q-104 0 -104 -110v-481q0 -133 -66 -207t-197 -74l-100 8v135z " />
<glyph unicode="~" d="M94 475q4 6 10.5 17.5t31 39t55 49t83 39t113.5 17.5q90 0 220 -47t200 -47q57 0 102 23.5t62 47.5l16 25l109 -76q-2 -6 -9.5 -17t-31 -40t-54 -50.5t-83 -39t-113.5 -17.5q-88 0 -219 47.5t-201 47.5q-57 0 -102 -24t-62 -48l-16 -25z" />
<glyph unicode="&#xa1;" horiz-adv-x="505" d="M143 954q0 47 31 77t80 30q47 0 77.5 -31t30.5 -76q0 -47 -30.5 -78.5t-77.5 -31.5q-49 0 -80 31.5t-31 78.5zM168 -410l25 1119h120l25 -1119h-170z" />
<glyph unicode="&#xa2;" d="M96 727q0 207 125 363.5t334 175.5v221h100v-221q164 -12 273.5 -111.5t150.5 -241.5l-141 -30q-31 106 -102.5 170.5t-180.5 76.5v-808q222 24 283 249l143 -26q-41 -145 -150.5 -244.5t-275.5 -112.5v-223h-100v223q-209 18 -334 174t-125 365zM242 727 q0 -164 86 -275.5t227 -129.5v808q-141 -18 -227 -129.5t-86 -273.5z" />
<glyph unicode="&#xa3;" d="M47 68q55 68 160 106q137 100 137 277q0 70 -27 135h-235v121h180q-4 8 -21.5 43.5t-24.5 52t-20.5 52.5t-20.5 62.5t-12 63.5t-5 74q0 188 120.5 309t342.5 121q217 0 339.5 -124t122.5 -337l-147 -29v23q0 152 -80 242t-235.5 90t-234.5 -84t-79 -224q0 -51 12.5 -103 t21.5 -75.5t41 -86t36 -70.5h399v-121h-354q18 -55 18 -123q0 -158 -88 -264q78 -2 204 -48.5t214 -46.5q145 0 238 134l94 -82q-137 -186 -361 -187q-94 0 -231 50.5t-217 50.5q-53 0 -104.5 -25t-75.5 -49l-25 -23z" />
<glyph unicode="&#xa4;" horiz-adv-x="1228" d="M152 158l147 147q-68 94 -68 211q0 123 70 217l-149 154l98 98l153 -154q96 70 213 70q115 0 211 -70l152 152l100 -98l-149 -150q72 -106 71.5 -219t-67.5 -213l145 -145l-100 -101l-145 144q-100 -70 -218 -70q-121 0 -221 72l-145 -146zM352 516.5q0 -108.5 78 -186.5 t186.5 -78t185.5 78t77 186q0 106 -77 184t-185.5 78t-186.5 -76.5t-78 -185z" />
<glyph unicode="&#xa5;" d="M72 1454h159l363 -625h4l354 625h168l-436 -735h279v-119h-293v-174h293v-119h-293v-307h-150v307h-293v119h293v174h-293v119h277z" />
<glyph unicode="&#xa6;" horiz-adv-x="557" d="M209 0v629h139v-629h-139zM209 905v629h139v-629h-139z" />
<glyph unicode="&#xa7;" horiz-adv-x="1155" d="M111 604q0 106 59 186t154 119q-119 98 -119 256q0 139 105.5 229.5t279.5 90.5q186 0 277 -90t114 -217l-135 -31q-12 94 -76.5 152.5t-183.5 58.5q-117 0 -177.5 -53.5t-60.5 -133.5q0 -150 207 -233l121 -51q193 -80 280.5 -169t87.5 -224q0 -109 -59 -189t-156 -121 q121 -92 121 -252q0 -141 -104.5 -230t-280.5 -89q-98 0 -174 28.5t-119 77t-65.5 97.5t-32.5 106l135 29q14 -94 79 -152.5t181.5 -58.5t178 52t61.5 132q0 147 -207 236l-123 51q-190 82 -279 171t-89 222zM248 612q0 -92 69.5 -149t221.5 -125l180 -80q82 23 136 84 t54 143q0 94 -70.5 153t-220.5 122l-182 78q-84 -25 -136 -84.5t-52 -141.5z" />
<glyph unicode="&#xa8;" horiz-adv-x="798" d="M150 1386q0 43 27.5 71t70.5 28t70.5 -27.5t27.5 -71.5q0 -41 -27.5 -68.5t-70.5 -27.5t-70.5 28t-27.5 68zM453 1386q0 43 27.5 71t70.5 28q41 0 69.5 -27.5t28.5 -71.5q0 -41 -28.5 -68.5t-69.5 -27.5q-43 0 -70.5 28t-27.5 68z" />
<glyph unicode="&#xa9;" horiz-adv-x="1630" d="M61 729.5q0 323.5 213 539.5t543 216q332 0 544 -216t212 -539.5t-212 -540t-544 -216.5q-330 0 -543 216.5t-213 540zM188 729q0 -283 174.5 -463t454.5 -180q283 0 457 180t174 463t-174 463t-457 180q-281 0 -455 -180t-174 -463zM436 729q0 172 107.5 286.5 t273.5 114.5t261.5 -92t107.5 -207h-127q-12 74 -71.5 130.5t-168.5 56.5q-121 0 -187.5 -80t-66.5 -209t66.5 -210t187.5 -81q109 0 168.5 56.5t71.5 132.5h127q-12 -115 -107.5 -207t-261.5 -92t-273.5 114.5t-107.5 286.5z" />
<glyph unicode="&#xaa;" horiz-adv-x="864" d="M82 879q0 111 86 170t252 79l186 25v21q0 166 -182 165q-170 0 -197 -149l-123 27q20 100 97.5 167.5t226.5 67.5q305 0 305 -293v-317q0 -59 55 -60l23 2v-114q-12 -2 -35 -2q-123 0 -160 98q-88 -109 -268 -109q-131 0 -198.5 59.5t-67.5 162.5zM211 879 q0 -115 151 -115q117 0 180.5 61.5t63.5 171.5v54l-166 -25q-121 -16 -175 -51t-54 -96z" />
<glyph unicode="&#xab;" horiz-adv-x="1024" d="M129 520l225 434h154l-225 -434l225 -432h-154zM516 520l223 434h156l-225 -434l225 -432h-156z" />
<glyph unicode="&#xac;" d="M68 451v139h1056v-504h-141v365h-915z" />
<glyph unicode="&#xad;" horiz-adv-x="811" d="M90 453v137h631v-137h-631z" />
<glyph unicode="&#xae;" horiz-adv-x="1200" d="M61 944q0 227 152 384t389.5 157t389 -157t151.5 -384q0 -229 -151.5 -385t-389 -156t-389.5 157t-152 384zM172 944.5q0 -196.5 118 -318.5t312.5 -122t313 122t118.5 318.5t-118.5 318t-313 121.5t-312.5 -121.5t-118 -318zM410 678v530h198q109 0 165 -49t56 -133 q0 -113 -94 -158l103 -190h-119l-82 168q-20 -2 -35 -2h-90v-166h-102zM512 942h111q102 0 102 84q0 86 -102 86h-111v-170z" />
<glyph unicode="&#xaf;" horiz-adv-x="813" d="M78 1305v122h657v-122h-657z" />
<glyph unicode="&#xb0;" horiz-adv-x="786" d="M55 1151q0 139 97.5 236.5t238.5 97.5t237.5 -97.5t96.5 -236.5q0 -141 -96.5 -238.5t-237.5 -97.5t-238.5 97.5t-97.5 238.5zM180 1151q0 -94 57.5 -157.5t153.5 -63.5t152.5 63.5t56.5 157.5q0 92 -56.5 155.5t-152.5 63.5t-153.5 -63.5t-57.5 -155.5z" />
<glyph unicode="&#xb1;" d="M68 0v141h1056v-141h-1056zM68 569v142h458v331h142v-331h456v-142h-456v-329h-142v329h-458z" />
<glyph unicode="&#xb2;" horiz-adv-x="788" d="M100 897v96l349 310q57 53 83.5 99t26.5 111q0 78 -43 125.5t-121 47.5q-84 0 -127 -50.5t-43 -138.5v-27l-125 29q0 135 80 218t215 83q137 0 214 -80t77 -202q0 -162 -164 -301l-233 -203h409v-117h-598z" />
<glyph unicode="&#xb3;" horiz-adv-x="792" d="M94 1130l117 25q8 -76 54 -120t124 -44t126 41t48 117q0 141 -180 141h-98v107h100q86 0 128 40t42 105q0 68 -42 106t-124 38q-76 0 -118 -42t-48 -112l-119 29q18 106 93 172.5t192 66.5q139 0 214 -68.5t75 -185.5q0 -139 -125 -196q68 -25 103.5 -80.5t35.5 -122.5 q0 -121 -82 -195.5t-221 -74.5q-127 0 -203 67t-92 186z" />
<glyph unicode="&#xb4;" horiz-adv-x="714" d="M209 1206l135 348h158l-158 -348h-135z" />
<glyph unicode="&#xb5;" horiz-adv-x="1214" d="M168 -385v1427h145v-636q0 -303 269 -304q133 0 220 83t87 241v616h145v-1042h-139v152q-35 -66 -120 -121.5t-218 -55.5q-166 0 -252 93q0 -35 2 -128.5t2 -150.5v-174h-141z" />
<glyph unicode="&#xb6;" horiz-adv-x="1255" d="M100 1006q0 195 129 321.5t353 126.5h465v-1860h-142v1723h-180v-1723h-143v965q-238 0 -360 125t-122 322z" />
<glyph unicode="&#xb7;" horiz-adv-x="442" d="M109 526q0 47 31.5 79t80.5 32q47 0 80 -32t33 -79q0 -49 -32 -79.5t-81 -30.5t-80.5 30.5t-31.5 79.5z" />
<glyph unicode="&#xb8;" horiz-adv-x="555" d="M98 -434l52 82q43 -41 110 -41q49 0 80 26.5t31 71.5q0 98 -105 98q-27 0 -50 -10t-32 -18l-10 -11l-63 35l86 230h92l-56 -148q18 10 60 10q84 0 135 -52t51 -132q0 -88 -60.5 -142t-156.5 -54q-49 0 -90 13t-57 27z" />
<glyph unicode="&#xb9;" horiz-adv-x="563" d="M55 1659v96l217 25h95v-885h-125v764h-187z" />
<glyph unicode="&#xba;" horiz-adv-x="894" d="M57 1055q0 172 109.5 284.5t282.5 112.5q170 0 279.5 -112.5t109.5 -284.5t-109.5 -285t-279.5 -113q-172 0 -282 113t-110 285zM188 1055q0 -123 70 -201t191 -78q119 0 188.5 78t69.5 201t-69.5 200.5t-188.5 77.5q-121 0 -191 -77.5t-70 -200.5z" />
<glyph unicode="&#xbb;" horiz-adv-x="1024" d="M129 88l225 432l-225 434h156l223 -434l-223 -432h-156zM516 88l225 432l-225 434h154l223 -434l-223 -432h-154z" />
<glyph unicode="&#xbc;" horiz-adv-x="1609" d="M66 1331v96l217 25h94v-885h-125v764h-186zM299 0l803 1454h129l-803 -1454h-129zM827 207v102l416 576h129v-566h115v-112h-115v-207h-121v207h-424zM965 319h286v398z" />
<glyph unicode="&#xbd;" horiz-adv-x="1716" d="M66 1331v96l217 25h94v-885h-125v764h-186zM299 0l803 1454h129l-803 -1454h-129zM995 0v96l348 310q57 53 84 99t27 111q0 78 -43 125t-121 47q-84 0 -127 -50t-43 -138v-27l-125 29q0 135 80 218t215 83q137 0 214 -80t77 -202q0 -162 -164 -302l-233 -202h409v-117 h-598z" />
<glyph unicode="&#xbe;" horiz-adv-x="1767" d="M131 793l117 24q8 -76 54 -120t124 -44t126 41t48 117q0 141 -180 141h-98v107h100q86 0 128 40t42 105q0 68 -42 106t-124 38q-76 0 -118 -42t-48 -112l-119 29q18 106 93 172.5t192 66.5q139 0 214 -68.5t75 -185.5q0 -139 -125 -196q68 -25 103.5 -80t35.5 -123 q0 -121 -82 -195.5t-221 -74.5q-127 0 -203 67.5t-92 186.5zM459 0l803 1454h127l-803 -1454h-127zM987 207v102l416 576h127v-566h115v-112h-115v-207h-119v207h-424zM1122 319h289v398z" />
<glyph unicode="&#xbf;" horiz-adv-x="1069" d="M100 -35q0 100 41 184t98.5 141.5t115 108t98.5 107.5t41 119l-9 84h144q10 -49 10 -86q0 -84 -40 -155t-97.5 -122t-113.5 -103.5t-96 -121t-40 -148.5q0 -131 79 -204.5t214 -73.5q133 0 214 84t81 221l151 -25q-4 -178 -126 -296.5t-320 -118.5q-211 0 -328 113.5 t-117 291.5zM440 954q0 45 31 76t78 31q49 0 79.5 -30t30.5 -77t-30.5 -77.5t-79.5 -30.5q-47 0 -78 30.5t-31 77.5z" />
<glyph unicode="&#xc0;" horiz-adv-x="1378" d="M8 0l598 1454h162l600 -1454h-166l-137 340h-758l-139 -340h-160zM360 479h650l-322 793h-4zM471 1923h160l135 -348h-135z" />
<glyph unicode="&#xc1;" horiz-adv-x="1378" d="M8 0l598 1454h162l600 -1454h-166l-137 340h-758l-139 -340h-160zM360 479h650l-322 793h-4zM629 1577l135 348h158l-158 -348h-135z" />
<glyph unicode="&#xc2;" horiz-adv-x="1378" d="M8 0l598 1454h162l600 -1454h-166l-137 340h-758l-139 -340h-160zM360 479h650l-322 793h-4zM414 1567v133l274 143l277 -143v-133l-277 139z" />
<glyph unicode="&#xc3;" horiz-adv-x="1378" d="M8 0l598 1454h162l600 -1454h-166l-137 340h-758l-139 -340h-160zM348 1622q10 90 64.5 141.5t142.5 51.5q59 0 142 -40t126 -40q72 0 86 73h113q-10 -90 -63.5 -142t-141.5 -52q-59 0 -143 41t-127 41q-72 0 -86 -74h-113zM360 479h650l-322 793h-4z" />
<glyph unicode="&#xc4;" horiz-adv-x="1378" d="M8 0l598 1454h162l600 -1454h-166l-137 340h-758l-139 -340h-160zM360 479h650l-322 793h-4zM436 1667q0 43 28 70.5t71 27.5t70.5 -27.5t27.5 -70.5q0 -41 -27.5 -68.5t-70.5 -27.5t-71 27.5t-28 68.5zM739 1667q0 43 28 70.5t71 27.5q41 0 69.5 -27.5t28.5 -70.5 q0 -41 -28.5 -68.5t-69.5 -27.5q-43 0 -71 27.5t-28 68.5z" />
<glyph unicode="&#xc5;" horiz-adv-x="1378" d="M8 0l598 1454h162l600 -1454h-166l-137 340h-758l-139 -340h-160zM360 479h650l-322 793h-4zM463 1761.5q0 96.5 64.5 161t165 64.5t163 -64.5t62.5 -161t-62.5 -162t-163 -65.5t-165 65.5t-64.5 162zM569 1761.5q0 -55.5 33 -92.5t90 -37q55 0 89 37t34 92 q0 53 -33.5 91t-89.5 38q-57 0 -90 -36.5t-33 -92z" />
<glyph unicode="&#xc6;" horiz-adv-x="2019" d="M-45 0l879 1454h1069v-141h-828v-504h783v-141h-783v-527h828v-141h-977v340h-592l-205 -340h-174zM414 479h512v828h-13z" />
<glyph unicode="&#xc7;" horiz-adv-x="1599" d="M106 727q0 330 198 544t521 214q242 0 419 -123t247 -336l-145 -49q-51 170 -190.5 268t-330.5 98q-254 0 -408.5 -169.5t-154.5 -446t154.5 -446.5t408.5 -170q190 0 329.5 98t191.5 268l145 -49q-68 -207 -239 -330t-406 -129l-33 -88q18 10 59 10q84 0 135.5 -52 t51.5 -132q0 -88 -60.5 -142t-156.5 -54q-49 0 -90 13t-58 27l-16 15l51 82q43 -41 111 -41q49 0 79.5 26.5t30.5 71.5q0 98 -104 98q-27 0 -50.5 -10t-33.5 -18l-8 -11l-64 35l64 174q-295 23 -471.5 233t-176.5 521z" />
<glyph unicode="&#xc8;" horiz-adv-x="1302" d="M207 0v1454h977v-141h-828v-504h785v-141h-785v-527h828v-141h-977zM483 1925h160l135 -348h-135z" />
<glyph unicode="&#xc9;" horiz-adv-x="1302" d="M207 0v1454h977v-141h-828v-504h785v-141h-785v-527h828v-141h-977zM614 1577l136 348h157l-157 -348h-136z" />
<glyph unicode="&#xca;" horiz-adv-x="1302" d="M207 0v1454h977v-141h-828v-504h785v-141h-785v-527h828v-141h-977zM430 1567v133l275 143l276 -143v-133l-276 139z" />
<glyph unicode="&#xcb;" horiz-adv-x="1302" d="M207 0v1454h977v-141h-828v-504h785v-141h-785v-527h828v-141h-977zM436 1667q0 43 28 70.5t71 27.5t70.5 -27.5t27.5 -70.5q0 -41 -27.5 -68.5t-70.5 -27.5t-71 27.5t-28 68.5zM739 1667q0 43 28 70.5t71 27.5q41 0 69.5 -27.5t28.5 -70.5q0 -41 -28.5 -68.5 t-69.5 -27.5q-43 0 -71 27.5t-28 68.5z" />
<glyph unicode="&#xcc;" horiz-adv-x="565" d="M57 1925h160l135 -348h-135zM207 0v1454h149v-1454h-149z" />
<glyph unicode="&#xcd;" horiz-adv-x="565" d="M207 0v1454h149v-1454h-149zM217 1577l135 348h158l-158 -348h-135z" />
<glyph unicode="&#xce;" horiz-adv-x="565" d="M6 1585v133l275 144l276 -144v-133l-276 139zM207 0v1454h149v-1454h-149z" />
<glyph unicode="&#xcf;" horiz-adv-x="565" d="M33 1667q0 43 27.5 70.5t70.5 27.5t70.5 -27.5t27.5 -70.5q0 -41 -27.5 -68.5t-70.5 -27.5t-70.5 27.5t-27.5 68.5zM207 0v1454h149v-1454h-149zM336 1667q0 43 27.5 70.5t70.5 27.5q41 0 69.5 -27.5t28.5 -70.5q0 -41 -28.5 -68.5t-69.5 -27.5q-43 0 -70.5 27.5 t-27.5 68.5z" />
<glyph unicode="&#xd0;" horiz-adv-x="1562" d="M39 659v136h168v659h440q381 0 595 -196.5t214 -530.5t-214 -530.5t-595 -196.5h-440v659h-168zM356 143h283q324 0 492.5 154t168.5 430.5t-168.5 430t-492.5 153.5h-283v-516h375v-136h-375v-516z" />
<glyph unicode="&#xd1;" horiz-adv-x="1568" d="M207 0v1454h158l847 -1216v1216h150v-1454h-158l-848 1214v-1214h-149zM459 1577q10 90 64.5 141t142.5 51q59 0 142 -39.5t126 -39.5q72 0 86 73h113q-10 -90 -63.5 -142t-141.5 -52q-59 0 -143.5 41t-127.5 41q-72 0 -86 -74h-112z" />
<glyph unicode="&#xd2;" horiz-adv-x="1695" d="M106 727q0 324 206 541t536 217t535.5 -217t205.5 -541t-205.5 -541t-535.5 -217t-536 217t-206 541zM262 727q0 -272 166 -444t420 -172t420 172t166 444t-166 444t-420 172t-420 -172t-166 -444zM631 1925h160l135 -348h-135z" />
<glyph unicode="&#xd3;" horiz-adv-x="1695" d="M106 727q0 324 206 541t536 217t535.5 -217t205.5 -541t-205.5 -541t-535.5 -217t-536 217t-206 541zM262 727q0 -272 166 -444t420 -172t420 172t166 444t-166 444t-420 172t-420 -172t-166 -444zM774 1577l135 348h158l-158 -348h-135z" />
<glyph unicode="&#xd4;" horiz-adv-x="1695" d="M106 727q0 324 206 541t536 217t535.5 -217t205.5 -541t-205.5 -541t-535.5 -217t-536 217t-206 541zM262 727q0 -272 166 -444t420 -172t420 172t166 444t-166 444t-420 172t-420 -172t-166 -444zM569 1599v134l275 143l276 -143v-134l-276 140z" />
<glyph unicode="&#xd5;" horiz-adv-x="1695" d="M106 727q0 324 206 541t536 217t535.5 -217t205.5 -541t-205.5 -541t-535.5 -217t-536 217t-206 541zM262 727q0 -272 166 -444t420 -172t420 172t166 444t-166 444t-420 172t-420 -172t-166 -444zM512 1622q10 90 64.5 141.5t142.5 51.5q59 0 142 -40t126 -40 q72 0 86 73h113q-10 -90 -63.5 -142t-141.5 -52q-59 0 -143 41t-127 41q-72 0 -86 -74h-113z" />
<glyph unicode="&#xd6;" horiz-adv-x="1695" d="M106 727q0 324 206 541t536 217t535.5 -217t205.5 -541t-205.5 -541t-535.5 -217t-536 217t-206 541zM262 727q0 -272 166 -444t420 -172t420 172t166 444t-166 444t-420 172t-420 -172t-166 -444zM604 1708q0 43 27.5 70.5t70.5 27.5t71 -27.5t28 -70.5q0 -41 -28 -68.5 t-71 -27.5t-70.5 27.5t-27.5 68.5zM907 1708q0 43 28 70.5t71 27.5q41 0 69.5 -27.5t28.5 -70.5q0 -41 -28.5 -68.5t-69.5 -27.5q-43 0 -71 27.5t-28 68.5z" />
<glyph unicode="&#xd7;" d="M131 156l365 364l-365 367l100 98l365 -364l362 362l101 -98l-365 -365l365 -362l-101 -101l-362 365l-365 -365z" />
<glyph unicode="&#xd8;" horiz-adv-x="1695" d="M106 727q0 324 206 541t536 217q250 0 440 -137l154 184l80 -72l-152 -182q219 -215 219 -551q0 -324 -205.5 -541t-535.5 -217q-264 0 -451 142l-157 -189l-80 68l157 190q-211 215 -211 547zM262 727q0 -260 154 -430l776 938q-147 109 -344 108q-254 0 -420 -172 t-166 -444zM494 223q150 -115 354 -114q254 0 419 173t165 445q0 266 -160 436z" />
<glyph unicode="&#xd9;" horiz-adv-x="1503" d="M174 600v854h150v-868q0 -221 111.5 -350.5t316 -129.5t316.5 129.5t112 350.5v868h149v-854q0 -307 -157.5 -469t-419.5 -162q-264 0 -421 162t-157 469zM526 1925h160l135 -348h-135z" />
<glyph unicode="&#xda;" horiz-adv-x="1503" d="M174 600v854h150v-868q0 -221 111.5 -350.5t316 -129.5t316.5 129.5t112 350.5v868h149v-854q0 -307 -157.5 -469t-419.5 -162q-264 0 -421 162t-157 469zM664 1579l135 348h157l-157 -348h-135z" />
<glyph unicode="&#xdb;" horiz-adv-x="1503" d="M174 600v854h150v-868q0 -221 111.5 -350.5t316 -129.5t316.5 129.5t112 350.5v868h149v-854q0 -307 -157.5 -469t-419.5 -162q-264 0 -421 162t-157 469zM473 1585v133l275 144l276 -144v-133l-276 139z" />
<glyph unicode="&#xdc;" horiz-adv-x="1503" d="M174 600v854h150v-868q0 -221 111.5 -350.5t316 -129.5t316.5 129.5t112 350.5v868h149v-854q0 -307 -157.5 -469t-419.5 -162q-264 0 -421 162t-157 469zM502 1667q0 43 27.5 70.5t70.5 27.5t70.5 -27.5t27.5 -70.5q0 -41 -27.5 -68.5t-70.5 -27.5t-70.5 27.5 t-27.5 68.5zM805 1667q0 43 27.5 70.5t70.5 27.5q41 0 69.5 -27.5t28.5 -70.5q0 -41 -28.5 -68.5t-69.5 -27.5q-43 0 -70.5 27.5t-27.5 68.5z" />
<glyph unicode="&#xdd;" horiz-adv-x="1259" d="M0 1454h168l461 -780h4l452 780h175l-555 -938v-516h-150v516zM555 1577l135 348h158l-158 -348h-135z" />
<glyph unicode="&#xde;" horiz-adv-x="1318" d="M207 0v1454h149v-215h416q240 0 354.5 -115.5t114.5 -304t-115.5 -304.5t-353.5 -116h-416v-399h-149zM356 541h422q156 0 232.5 72.5t76.5 205.5t-76.5 206t-232.5 73h-422v-557z" />
<glyph unicode="&#xdf;" horiz-adv-x="1253" d="M178 0v1016q0 213 110.5 335t301.5 122q180 0 286.5 -99.5t106.5 -257.5q0 -102 -70 -219l-16 -29q-39 -70 -39 -112q0 -37 16.5 -60.5t63.5 -62.5l51 -43q162 -135 162 -285q0 -152 -97 -240t-253 -88q-164 0 -257 82t-112 197l139 29q8 -78 68.5 -129.5t159.5 -51.5 q96 0 151.5 52.5t55.5 146.5q0 96 -109 182l-53 43q-127 98 -127 220q0 76 61 184l19 31q45 82 45 149q0 109 -67.5 168t-186.5 59q-129 0 -196.5 -80.5t-67.5 -228.5v-1030h-146z" />
<glyph unicode="&#xe0;" horiz-adv-x="1187" d="M106 287q0 264 394 315l364 47v29q0 264 -295 264q-254 0 -295 -207l-137 29q29 139 136.5 221t301.5 82q217 0 326 -105.5t109 -285.5v-457q0 -100 88 -100l37 4v-121q-20 -6 -66 -6q-74 0 -129 45t-68 121q-59 -88 -166.5 -137.5t-234.5 -49.5q-180 0 -272.5 83 t-92.5 229zM250 287q0 -102 69.5 -146.5t172.5 -44.5q174 0 273 97.5t99 220.5v121l-346 -48q-143 -18 -205.5 -68t-62.5 -132zM373 1554h159l136 -348h-136z" />
<glyph unicode="&#xe1;" horiz-adv-x="1187" d="M106 287q0 264 394 315l364 47v29q0 264 -295 264q-254 0 -295 -207l-137 29q29 139 136.5 221t301.5 82q217 0 326 -105.5t109 -285.5v-457q0 -100 88 -100l37 4v-121q-20 -6 -66 -6q-74 0 -129 45t-68 121q-59 -88 -166.5 -137.5t-234.5 -49.5q-180 0 -272.5 83 t-92.5 229zM250 287q0 -102 69.5 -146.5t172.5 -44.5q174 0 273 97.5t99 220.5v121l-346 -48q-143 -18 -205.5 -68t-62.5 -132zM483 1206l135 348h158l-158 -348h-135z" />
<glyph unicode="&#xe2;" horiz-adv-x="1187" d="M106 287q0 264 394 315l364 47v29q0 264 -295 264q-254 0 -295 -207l-137 29q29 139 136.5 221t301.5 82q217 0 326 -105.5t109 -285.5v-457q0 -100 88 -100l37 4v-121q-20 -6 -66 -6q-74 0 -129 45t-68 121q-59 -88 -166.5 -137.5t-234.5 -49.5q-180 0 -272.5 83 t-92.5 229zM250 287q0 -102 69.5 -146.5t172.5 -44.5q174 0 273 97.5t99 220.5v121l-346 -48q-143 -18 -205.5 -68t-62.5 -132zM291 1227v133l274 143l277 -143v-133l-277 139z" />
<glyph unicode="&#xe3;" horiz-adv-x="1187" d="M106 287q0 264 394 315l364 47v29q0 264 -295 264q-254 0 -295 -207l-137 29q29 139 136.5 221t301.5 82q217 0 326 -105.5t109 -285.5v-457q0 -100 88 -100l37 4v-121q-20 -6 -66 -6q-74 0 -129 45t-68 121q-59 -88 -166.5 -137.5t-234.5 -49.5q-180 0 -272.5 83 t-92.5 229zM229 1282q10 90 64.5 141.5t142.5 51.5q59 0 142.5 -40t126.5 -40q72 0 86 73h112q-10 -90 -63.5 -142t-141.5 -52q-59 0 -143 41t-127 41q-72 0 -86 -74h-113zM250 287q0 -102 69.5 -146.5t172.5 -44.5q174 0 273 97.5t99 220.5v121l-346 -48 q-143 -18 -205.5 -68t-62.5 -132z" />
<glyph unicode="&#xe4;" horiz-adv-x="1187" d="M106 287q0 264 394 315l364 47v29q0 264 -295 264q-254 0 -295 -207l-137 29q29 139 136.5 221t301.5 82q217 0 326 -105.5t109 -285.5v-457q0 -100 88 -100l37 4v-121q-20 -6 -66 -6q-74 0 -129 45t-68 121q-59 -88 -166.5 -137.5t-234.5 -49.5q-180 0 -272.5 83 t-92.5 229zM250 287q0 -102 69.5 -146.5t172.5 -44.5q174 0 273 97.5t99 220.5v121l-346 -48q-143 -18 -205.5 -68t-62.5 -132zM315 1386q0 43 28 71t71 28t70.5 -27.5t27.5 -71.5q0 -41 -27.5 -68.5t-70.5 -27.5t-71 28t-28 68zM618 1386q0 43 28 71t71 28q41 0 69.5 -27.5 t28.5 -71.5q0 -41 -28.5 -68.5t-69.5 -27.5q-43 0 -71 28t-28 68z" />
<glyph unicode="&#xe5;" horiz-adv-x="1187" d="M106 287q0 264 394 315l364 47v29q0 264 -295 264q-254 0 -295 -207l-137 29q29 139 136.5 221t301.5 82q217 0 326 -105.5t109 -285.5v-457q0 -100 88 -100l37 4v-121q-20 -6 -66 -6q-74 0 -129 45t-68 121q-59 -88 -166.5 -137.5t-234.5 -49.5q-180 0 -272.5 83 t-92.5 229zM250 287q0 -102 69.5 -146.5t172.5 -44.5q174 0 273 97.5t99 220.5v121l-346 -48q-143 -18 -205.5 -68t-62.5 -132zM336 1423.5q0 96.5 64.5 161t165 64.5t163 -64.5t62.5 -161t-62.5 -162t-163 -65.5t-165 65.5t-64.5 162zM442 1423.5q0 -55.5 33 -92.5t90 -37 q55 0 89 37t34 92q0 53 -33.5 91t-89.5 38q-57 0 -90 -36.5t-33 -92z" />
<glyph unicode="&#xe6;" horiz-adv-x="1976" d="M106 287q0 264 394 315l366 47v29q0 264 -297 264q-254 0 -295 -207l-137 29q29 139 136.5 221t301.5 82q301 0 394 -217q145 217 407 217q227 0 364.5 -152.5t137.5 -379.5l-2 -56h-866q10 -162 109 -267.5t259 -105.5q117 0 203 58.5t127 159.5l127 -56 q-57 -133 -177 -213t-282 -80q-152 0 -264.5 70t-175.5 186q-53 -121 -174 -188.5t-283 -67.5q-180 0 -276.5 83t-96.5 229zM250 287q0 -102 70 -146.5t172 -44.5q176 0 274 95.5t98 222.5v121l-346 -48q-143 -18 -205.5 -68t-62.5 -132zM1014 598h719q-16 154 -110.5 246 t-246.5 92q-147 0 -245.5 -95.5t-116.5 -242.5z" />
<glyph unicode="&#xe7;" horiz-adv-x="1181" d="M100 520q0 223 142.5 385t371.5 162q201 0 328 -113.5t160 -281.5h-148q-33 123 -121 193.5t-219 70.5q-164 0 -265 -117t-101 -299q0 -180 101.5 -297t264.5 -117q131 0 219.5 71t120.5 194h148q-33 -162 -149.5 -272.5t-305.5 -121.5l-35 -98q18 10 62 10q84 0 133 -51 t49 -131q0 -86 -60.5 -140t-154.5 -54q-47 0 -88 14t-57 27l-17 14l51 80q41 -41 111 -41q49 0 79 26.5t30 71.5q0 98 -105 98q-27 0 -49.5 -10t-30.5 -18l-10 -11l-63 37l65 176q-207 20 -332 177t-125 366z" />
<glyph unicode="&#xe8;" horiz-adv-x="1214" d="M100 522q0 225 142.5 385t370 160t364.5 -152.5t137 -379.5l-2 -56h-866q10 -164 110.5 -268.5t259.5 -104.5q117 0 203 59t127 159l127 -56q-57 -133 -177 -213t-282 -80q-238 0 -376 159t-138 388zM250 598h719q-14 154 -109.5 246t-247.5 92q-147 0 -245.5 -95.5 t-116.5 -242.5zM408 1554h159l135 -348h-135z" />
<glyph unicode="&#xe9;" horiz-adv-x="1214" d="M100 522q0 225 142.5 385t370 160t364.5 -152.5t137 -379.5l-2 -56h-866q10 -164 110.5 -268.5t259.5 -104.5q117 0 203 59t127 159l127 -56q-57 -133 -177 -213t-282 -80q-238 0 -376 159t-138 388zM250 598h719q-14 154 -109.5 246t-247.5 92q-147 0 -245.5 -95.5 t-116.5 -242.5zM543 1206l135 348h158l-158 -348h-135z" />
<glyph unicode="&#xea;" horiz-adv-x="1214" d="M100 522q0 225 142.5 385t370 160t364.5 -152.5t137 -379.5l-2 -56h-866q10 -164 110.5 -268.5t259.5 -104.5q117 0 203 59t127 159l127 -56q-57 -133 -177 -213t-282 -80q-238 0 -376 159t-138 388zM250 598h719q-14 154 -109.5 246t-247.5 92q-147 0 -245.5 -95.5 t-116.5 -242.5zM350 1227v133l275 143l276 -143v-133l-276 139z" />
<glyph unicode="&#xeb;" horiz-adv-x="1214" d="M100 522q0 225 142.5 385t370 160t364.5 -152.5t137 -379.5l-2 -56h-866q10 -164 110.5 -268.5t259.5 -104.5q117 0 203 59t127 159l127 -56q-57 -133 -177 -213t-282 -80q-238 0 -376 159t-138 388zM250 598h719q-14 154 -109.5 246t-247.5 92q-147 0 -245.5 -95.5 t-116.5 -242.5zM365 1386q0 43 27.5 71t70.5 28t70.5 -27.5t27.5 -71.5q0 -41 -27.5 -68.5t-70.5 -27.5t-70.5 28t-27.5 68zM668 1386q0 43 27.5 71t70.5 28q41 0 69.5 -27.5t28.5 -71.5q0 -41 -28.5 -68.5t-69.5 -27.5q-43 0 -70.5 28t-27.5 68z" />
<glyph unicode="&#xec;" horiz-adv-x="503" d="M33 1554h160l135 -348h-135zM178 0v1042h146v-1042h-146z" />
<glyph unicode="&#xed;" horiz-adv-x="503" d="M178 0v1042h146v-1042h-146zM178 1206l135 348h158l-158 -348h-135z" />
<glyph unicode="&#xee;" horiz-adv-x="503" d="M-23 1227v133l275 143l276 -143v-133l-276 139zM178 0v1042h146v-1042h-146z" />
<glyph unicode="&#xef;" horiz-adv-x="503" d="M2 1386q0 43 27.5 71t70.5 28t71 -27.5t28 -71.5q0 -41 -28 -68.5t-71 -27.5t-70.5 28t-27.5 68zM178 0v1042h146v-1042h-146zM305 1386q0 43 27.5 71t70.5 28q41 0 70 -27.5t29 -71.5q0 -41 -29 -68.5t-70 -27.5q-43 0 -70.5 28t-27.5 68z" />
<glyph unicode="&#xf0;" horiz-adv-x="1257" d="M100 520q0 225 141.5 386t374.5 161q115 0 211.5 -47t145.5 -117q-98 250 -289 418l-264 -131l-49 84l229 115q-74 51 -194 114l81 88q123 -63 232 -143l223 113l51 -86l-194 -97q356 -328 356 -825q0 -244 -145.5 -411t-382.5 -167q-236 0 -381.5 161t-145.5 384z M248 520q0 -176 104.5 -295t274.5 -119q172 0 276.5 119t104.5 295q0 178 -104.5 297t-276.5 119q-170 0 -274.5 -119t-104.5 -297z" />
<glyph unicode="&#xf1;" horiz-adv-x="1224" d="M178 0v1042h139v-159q37 70 123 127t222 57q188 0 291.5 -110.5t103.5 -290.5v-666h-146v637q0 145 -68.5 224t-205.5 79t-225 -84t-88 -235v-621h-146zM274 1282q10 90 64.5 141.5t142.5 51.5q59 0 142.5 -40t126.5 -40q72 0 86 73h112q-10 -90 -63.5 -142t-141.5 -52 q-59 0 -143 41t-127 41q-72 0 -86 -74h-113z" />
<glyph unicode="&#xf2;" horiz-adv-x="1263" d="M100 520q0 225 146.5 386t384.5 161q240 0 386 -161t146 -386q0 -223 -146 -384t-386 -161q-238 0 -384.5 161t-146.5 384zM248 520q0 -178 106.5 -296t276.5 -118q172 0 278.5 118t106.5 296q0 180 -106.5 298t-278.5 118t-277.5 -118t-105.5 -298zM430 1554h160 l135 -348h-135z" />
<glyph unicode="&#xf3;" horiz-adv-x="1263" d="M100 520q0 225 146.5 386t384.5 161q240 0 386 -161t146 -386q0 -223 -146 -384t-386 -161q-238 0 -384.5 161t-146.5 384zM248 520q0 -178 106.5 -296t276.5 -118q172 0 278.5 118t106.5 296q0 180 -106.5 298t-278.5 118t-277.5 -118t-105.5 -298zM569 1206l136 348 h157l-157 -348h-136z" />
<glyph unicode="&#xf4;" horiz-adv-x="1263" d="M100 520q0 225 146.5 386t384.5 161q240 0 386 -161t146 -386q0 -223 -146 -384t-386 -161q-238 0 -384.5 161t-146.5 384zM248 520q0 -178 106.5 -296t276.5 -118q172 0 278.5 118t106.5 296q0 180 -106.5 298t-278.5 118t-277.5 -118t-105.5 -298zM377 1227v133 l274 143l277 -143v-133l-277 139z" />
<glyph unicode="&#xf5;" horiz-adv-x="1263" d="M100 520q0 225 146.5 386t384.5 161q240 0 386 -161t146 -386q0 -223 -146 -384t-386 -161q-238 0 -384.5 161t-146.5 384zM248 520q0 -178 106.5 -296t276.5 -118q172 0 278.5 118t106.5 296q0 180 -106.5 298t-278.5 118t-277.5 -118t-105.5 -298zM293 1282 q10 90 64.5 141.5t142.5 51.5q59 0 142 -40t126 -40q72 0 86 73h113q-10 -90 -63.5 -142t-141.5 -52q-59 0 -143 41t-127 41q-72 0 -86 -74h-113z" />
<glyph unicode="&#xf6;" horiz-adv-x="1263" d="M100 520q0 225 146.5 386t384.5 161q240 0 386 -161t146 -386q0 -223 -146 -384t-386 -161q-238 0 -384.5 161t-146.5 384zM248 520q0 -178 106.5 -296t276.5 -118q172 0 278.5 118t106.5 296q0 180 -106.5 298t-278.5 118t-277.5 -118t-105.5 -298zM381 1386 q0 43 27.5 71t70.5 28t71 -27.5t28 -71.5q0 -41 -28 -68.5t-71 -27.5t-70.5 28t-27.5 68zM684 1386q0 43 27.5 71t70.5 28q41 0 70 -27.5t29 -71.5q0 -41 -29 -68.5t-70 -27.5q-43 0 -70.5 28t-27.5 68z" />
<glyph unicode="&#xf7;" d="M68 451v139h1056v-139h-1056zM489 180q0 47 30 77t77 30t76.5 -30t29.5 -77q0 -45 -29.5 -74.5t-76.5 -29.5t-77 28.5t-30 75.5zM489 860q0 47 30 77t77 30t76.5 -31t29.5 -76t-29.5 -75.5t-76.5 -30.5t-77 29.5t-30 76.5z" />
<glyph unicode="&#xf8;" horiz-adv-x="1263" d="M100 520q0 225 146.5 386t384.5 161q182 0 317 -102l129 153l72 -61l-129 -154q143 -156 143 -383q0 -223 -146 -384t-386 -161q-176 0 -309 95l-109 -129l-72 61l111 129q-152 156 -152 389zM248 520q0 -170 94 -280l518 622q-96 74 -229 74q-172 0 -277.5 -118 t-105.5 -298zM410 172q98 -66 221 -66q172 0 278.5 118t106.5 296q0 162 -88 273z" />
<glyph unicode="&#xf9;" horiz-adv-x="1214" d="M168 375v667h145v-636q0 -303 269 -304q133 0 220 83t87 241v616h145v-1042h-139v152q-35 -66 -120 -121.5t-218 -55.5q-188 0 -288.5 110t-100.5 290zM371 1554h159l136 -348h-136z" />
<glyph unicode="&#xfa;" horiz-adv-x="1214" d="M168 375v667h145v-636q0 -303 269 -304q133 0 220 83t87 241v616h145v-1042h-139v152q-35 -66 -120 -121.5t-218 -55.5q-188 0 -288.5 110t-100.5 290zM514 1206l135 348h158l-158 -348h-135z" />
<glyph unicode="&#xfb;" horiz-adv-x="1214" d="M168 375v667h145v-636q0 -303 269 -304q133 0 220 83t87 241v616h145v-1042h-139v152q-35 -66 -120 -121.5t-218 -55.5q-188 0 -288.5 110t-100.5 290zM313 1227v133l275 143l276 -143v-133l-276 139z" />
<glyph unicode="&#xfc;" horiz-adv-x="1214" d="M168 375v667h145v-636q0 -303 269 -304q133 0 220 83t87 241v616h145v-1042h-139v152q-35 -66 -120 -121.5t-218 -55.5q-188 0 -288.5 110t-100.5 290zM336 1386q0 43 27.5 71t70.5 28t70.5 -27.5t27.5 -71.5q0 -41 -27.5 -68.5t-70.5 -27.5t-70.5 28t-27.5 68zM639 1386 q0 43 27.5 71t70.5 28q41 0 70 -27.5t29 -71.5q0 -41 -29 -68.5t-70 -27.5q-43 0 -70.5 28t-27.5 68z" />
<glyph unicode="&#xfd;" horiz-adv-x="1089" d="M33 1042h157l355 -874l358 874h154l-504 -1196q-125 -295 -379 -295l-41 3v133q17 -2 35 -2q86 0 146.5 45t109.5 159l45 111zM479 1206l135 348h158l-158 -348h-135z" />
<glyph unicode="&#xfe;" horiz-adv-x="1304" d="M178 -426v1960h146v-674q119 207 387 207q231 0 361 -157.5t130 -389.5q0 -227 -130 -386t-361 -159q-268 0 -387 207v-608h-146zM322 524q0 -182 95 -300t267 -118q170 0 270.5 118t100.5 296q0 180 -100.5 299t-270.5 119q-168 0 -265 -118t-97 -296z" />
<glyph unicode="&#xff;" horiz-adv-x="1089" d="M33 1042h157l355 -874l358 874h154l-504 -1196q-125 -295 -379 -295l-41 3v133q17 -2 35 -2q86 0 146.5 45t109.5 159l45 111zM297 1386q0 43 27.5 71t70.5 28t71 -27.5t28 -71.5q0 -41 -28 -68.5t-71 -27.5t-70.5 28t-27.5 68zM600 1386q0 43 27.5 71t70.5 28 q41 0 70 -27.5t29 -71.5q0 -41 -29 -68.5t-70 -27.5q-43 0 -70.5 28t-27.5 68z" />
<glyph unicode="&#x152;" horiz-adv-x="2525" d="M106 727q0 324 209 541t531 217q195 0 344 -82t240 -232v283h976v-141h-827v-504h782v-141h-782v-527h827v-141h-976v279q-90 -147 -240 -228.5t-344 -81.5q-322 0 -531 217t-209 541zM262 727q0 -274 164 -447.5t420 -173.5t420 173.5t164 447.5t-164 446.5t-420 172.5 t-420 -172.5t-164 -446.5z" />
<glyph unicode="&#x153;" horiz-adv-x="2125" d="M100 520q0 225 146.5 386t384.5 161q154 0 271.5 -72.5t182.5 -193.5q63 121 178 193.5t263 72.5q227 0 364.5 -152.5t137.5 -379.5l-3 -56h-866q10 -162 109.5 -267.5t259.5 -105.5q117 0 203 58.5t127 159.5l127 -56q-57 -133 -177 -213t-282 -80q-305 0 -443 263 q-63 -119 -181 -191t-271 -72q-238 0 -384.5 161t-146.5 384zM248 520q0 -178 106.5 -296t276.5 -118q172 0 278.5 118t106.5 296q0 180 -106.5 298t-278.5 118t-277.5 -118t-105.5 -298zM1163 598h717q-14 152 -109.5 245t-244.5 93q-147 0 -246 -95.5t-117 -242.5z" />
<glyph unicode="&#x178;" horiz-adv-x="1259" d="M0 1454h168l461 -780h4l452 780h175l-555 -938v-516h-150v516zM377 1657q0 43 27.5 70.5t70.5 27.5t70.5 -27.5t27.5 -70.5q0 -41 -27.5 -68.5t-70.5 -27.5t-70.5 27.5t-27.5 68.5zM680 1657q0 43 27.5 70.5t70.5 27.5q41 0 70 -27.5t29 -70.5q0 -41 -29 -68.5t-70 -27.5 q-43 0 -70.5 27.5t-27.5 68.5z" />
<glyph unicode="&#x2c6;" horiz-adv-x="856" d="M154 1227v133l274 143l277 -143v-133l-277 139z" />
<glyph unicode="&#x2dc;" horiz-adv-x="862" d="M94 1282q10 90 64.5 141.5t142.5 51.5q59 0 142 -40t126 -40q72 0 86 73h113q-10 -90 -63.5 -142t-141.5 -52q-59 0 -143 41t-127 41q-72 0 -86 -74h-113z" />
<glyph unicode="&#x2000;" horiz-adv-x="993" />
<glyph unicode="&#x2001;" horiz-adv-x="1987" />
<glyph unicode="&#x2002;" horiz-adv-x="993" />
<glyph unicode="&#x2003;" horiz-adv-x="1987" />
<glyph unicode="&#x2004;" horiz-adv-x="662" />
<glyph unicode="&#x2005;" horiz-adv-x="496" />
<glyph unicode="&#x2006;" horiz-adv-x="331" />
<glyph unicode="&#x2007;" horiz-adv-x="331" />
<glyph unicode="&#x2008;" horiz-adv-x="248" />
<glyph unicode="&#x2009;" horiz-adv-x="397" />
<glyph unicode="&#x200a;" horiz-adv-x="110" />
<glyph unicode="&#x2010;" horiz-adv-x="811" d="M90 453v137h631v-137h-631z" />
<glyph unicode="&#x2011;" horiz-adv-x="811" d="M90 453v137h631v-137h-631z" />
<glyph unicode="&#x2012;" horiz-adv-x="811" d="M90 453v137h631v-137h-631z" />
<glyph unicode="&#x2013;" horiz-adv-x="1024" d="M0 453v137h1024v-137h-1024z" />
<glyph unicode="&#x2014;" horiz-adv-x="2048" d="M0 453v137h2048v-137h-2048z" />
<glyph unicode="&#x2018;" horiz-adv-x="440" d="M88 1047l139 407h125l-100 -407h-164z" />
<glyph unicode="&#x2019;" horiz-adv-x="440" d="M88 1047l98 407h166l-139 -407h-125z" />
<glyph unicode="&#x201a;" horiz-adv-x="440" d="M88 -213l98 406h166l-139 -406h-125z" />
<glyph unicode="&#x201c;" horiz-adv-x="753" d="M88 1047l139 407h125l-100 -407h-164zM401 1047l140 407h125l-99 -407h-166z" />
<glyph unicode="&#x201d;" horiz-adv-x="753" d="M88 1047l98 407h166l-139 -407h-125zM401 1047l101 407h164l-140 -407h-125z" />
<glyph unicode="&#x201e;" horiz-adv-x="753" d="M88 -213l98 408h166l-139 -408h-125zM401 -213l101 408h164l-140 -408h-125z" />
<glyph unicode="&#x2022;" horiz-adv-x="1058" d="M227 731q0 127 88 215t213 88q127 0 215 -89t88 -214t-88 -213t-215 -88t-214 88t-87 213z" />
<glyph unicode="&#x2026;" horiz-adv-x="1323" d="M109 90q0 47 30.5 78t79.5 31q47 0 78 -31t31 -78q0 -45 -31 -75.5t-78 -30.5q-49 0 -79.5 29.5t-30.5 76.5zM553 90q0 47 30.5 78t78 31t78 -31t30.5 -78q0 -45 -30.5 -75.5t-78 -30.5t-78 29.5t-30.5 76.5zM995 90q0 47 31 78t80 31q47 0 77.5 -31t30.5 -78 q0 -45 -30.5 -75.5t-77.5 -30.5q-49 0 -80 29.5t-31 76.5z" />
<glyph unicode="&#x202f;" horiz-adv-x="397" />
<glyph unicode="&#x2039;" horiz-adv-x="638" d="M129 528l225 435h154l-225 -435l225 -432h-154z" />
<glyph unicode="&#x203a;" horiz-adv-x="641" d="M129 96l225 432l-225 435h156l223 -435l-223 -432h-156z" />
<glyph unicode="&#x205f;" horiz-adv-x="496" />
<glyph unicode="&#x20ac;" d="M90 518v119h137q-2 25 -2 90q0 16 1 49t1 45h-137v119h152q45 256 200.5 400.5t409.5 144.5q76 0 144.5 -13.5t97.5 -27.5l30 -14v-146q-111 66 -272 66q-385 0 -457 -410h459v-119h-473q-4 -53 -4 -94q0 -61 2 -90h475v-119h-459q72 -412 457 -412q72 0 140.5 16.5 t101.5 33.5l30 14v-145q-100 -55 -272 -56q-256 0 -411.5 144.5t-198.5 404.5h-152z" />
<glyph unicode="&#x2122;" horiz-adv-x="1779" d="M74 1337v117h641v-117h-260v-723h-121v723h-260zM821 614v840h113l291 -371l288 371h113v-840h-123v648l-274 -351h-8l-277 351v-648h-123z" />
<glyph unicode="&#x25fc;" horiz-adv-x="1044" d="M0 0v1044h1044v-1044h-1044z" />
</font>
</defs>
</svg>
